<?xml version="1.0" encoding="utf-8"?>
<!-- Generator: Adobe Illustrator 22.0.1, SVG Export Plug-In . SVG Version: 6.00 Build 0)  -->
<svg version="1.1" id="Layer_1_1_" xmlns="http://www.w3.org/2000/svg" xmlns:xlink="http://www.w3.org/1999/xlink" x="0px" y="0px"
	 viewBox="0 0 512 512" style="enable-background:new 0 0 512 512;" xml:space="preserve">
<style type="text/css">
	.st0{fill:#FFB554;}
	.st1{fill:#EA5B58;}
	.st2{fill:#5DC4DD;}
	.st3{fill:#1E191A;}
</style>
<path class="st0" d="M432,344c22.1,0,40-17.9,40-40s-17.9-40-40-40c-0.3,0-0.5,0.1-0.8,0.1c0.5-2.6,0.8-5.3,0.8-8.1
	c0-22.1-17.9-40-40-40c-9.1,0-17.3,3.1-24,8.2c0-0.1,0-0.1,0-0.2c0-22.1-17.9-40-40-40c-13.5,0-25.5,6.8-32.7,17.1
	C292,182.3,275.7,168,256,168s-36,14.3-39.3,33.1c-7.2-10.3-19.2-17.1-32.7-17.1c-22.1,0-40,17.9-40,40c0,0.1,0,0.1,0,0.2
	c-6.7-5.1-15-8.2-24-8.2c-22.1,0-40,17.9-40,40c0,2.8,0.3,5.5,0.8,8.1c-0.3,0-0.5-0.1-0.8-0.1c-22.1,0-40,17.9-40,40s17.9,40,40,40
	H432z"/>
<g>
	<path class="st1" d="M24,40h32v80H24V40z"/>
	<path class="st1" d="M56,24h40v112H56V24z"/>
	<path class="st1" d="M488,120h-32V40h32V120z"/>
	<path class="st1" d="M456,136h-40V24h40V136z"/>
</g>
<path class="st2" d="M96,64h320v32H96V64z"/>
<path class="st1" d="M368,488h-96v-48h48C346.5,440,368,461.5,368,488z"/>
<path class="st1" d="M240,440v48h-96c0-26.5,21.5-48,48-48H240z"/>
<path class="st2" d="M272,344h40v96h-40V344z"/>
<path class="st2" d="M200,344h40v96h-40V344z"/>
<path class="st3" d="M488,32h-24v-8c0-4.4-3.6-8-8-8h-40c-4.4,0-8,3.6-8,8v32H104V24c0-4.4-3.6-8-8-8H56c-4.4,0-8,3.6-8,8v8H24
	c-4.4,0-8,3.6-8,8v80c0,4.4,3.6,8,8,8h24v8c0,4.4,3.6,8,8,8h40c4.4,0,8-3.6,8-8v-32h16v104c-26.5,0-48,21.5-48,48c0,0.2,0,0.4,0,0.7
	c-22.7,3.8-40,23.6-40,47.3c0,26.5,21.5,48,48,48h112v80c-30.9,0-56,25.1-56,56c0,4.4,3.6,8,8,8h96c4.4,0,8-3.6,8-8V352h16v136
	c0,4.4,3.6,8,8,8h96c4.4,0,8-3.6,8-8c0-30.9-25.1-56-56-56v-80h112c26.5,0,48-21.5,48-48c0-23.7-17.3-43.5-40-47.3
	c0-0.2,0-0.4,0-0.7c0-26.5-21.5-48-48-48V104h16v32c0,4.4,3.6,8,8,8h40c4.4,0,8-3.6,8-8v-8h24c4.4,0,8-3.6,8-8V40
	C496,35.6,492.4,32,488,32z M32,112V48h16v64H32z M88,128H64v-8V40v-8h24v32v32V128z M152.8,480c3.7-18.2,19.9-32,39.2-32h8h32v32
	H152.8z M232,432h-24v-80h24V432z M359.2,480H280v-32h32h8C339.3,448,355.5,461.8,359.2,480z M304,432h-24v-80h24V432z M424,256
	c0,2.2-0.2,4.4-0.7,6.5c-0.5,2.4,0.1,4.9,1.7,6.8c1.6,1.9,3.9,2.9,6.4,2.9c0.3,0,0.7,0,1-0.1c17.5,0.2,31.6,14.5,31.6,32
	c0,17.6-14.4,32-32,32H312h-40h-32h-40H80c-17.6,0-32-14.4-32-32c0-17.5,14.1-31.8,31.6-32c0.3,0,0.8,0.1,1,0.1c2.4,0,4.8-1,6.4-2.9
	c1.6-1.9,2.2-4.4,1.7-6.8c-0.4-2.1-0.7-4.3-0.7-6.5c0-17.6,14.4-32,32-32c6.9,0,13.5,2.3,19.2,6.6c2.6,2,6.2,2.1,9,0.4
	c2.5-1.5,4-4.4,3.8-7.3c0.2-17.5,14.5-31.7,32-31.7c10.4,0,20.1,5.1,26.1,13.7c1.9,2.6,5.1,3.9,8.3,3.2c3.2-0.7,5.6-3.2,6.1-6.4
	c2.7-15.3,15.9-26.4,31.4-26.4s28.7,11.1,31.4,26.4c0.6,3.2,3,5.7,6.1,6.4c3.1,0.7,6.4-0.6,8.3-3.2c6-8.6,15.8-13.7,26.1-13.7
	c17.6,0,32,14.4,32,31.2c-0.4,3.2,1.1,6.3,3.9,7.9c2.8,1.6,6.3,1.4,8.8-0.5c5.7-4.3,12.3-6.6,19.2-6.6C409.6,224,424,238.4,424,256
	L424,256z M376,210.9c-0.5,0.2-1.1,0.3-1.7,0.5C368.8,191,350.1,176,328,176c-10.7,0-21,3.6-29.4,10.1c-8-15.7-24.3-26.1-42.6-26.1
	s-34.6,10.4-42.6,26.1C205,179.6,194.7,176,184,176c-22.1,0-40.8,15-46.3,35.4c-0.5-0.2-1.1-0.3-1.7-0.5V104h240V210.9z M104,88V72
	h304v16H104z M448,128h-24V96V64V32h24v8v80V128z M480,112h-16V48h16V112z"/>
<circle class="st3" cx="220" cy="252" r="12"/>
<circle class="st3" cx="292" cy="252" r="12"/>
<path class="st3" d="M221.6,290.2l-11.1,11.5c12.6,12.1,29.1,18.2,45.6,18.2s33-6.1,45.6-18.2l-11.1-11.5
	C271.4,308.6,240.6,308.6,221.6,290.2L221.6,290.2z"/>
</svg>
