<?xml version="1.0" encoding="utf-8"?>
<!-- Generator: Adobe Illustrator 22.0.1, SVG Export Plug-In . SVG Version: 6.00 Build 0)  -->
<svg version="1.1" id="Capa_1" xmlns="http://www.w3.org/2000/svg" xmlns:xlink="http://www.w3.org/1999/xlink" x="0px" y="0px"
	 viewBox="0 0 512 512" style="enable-background:new 0 0 512 512;" xml:space="preserve">
<style type="text/css">
	.st0{fill:#F1B986;}
	.st1{fill:#F1D0A5;}
	.st2{fill:#F4DD45;}
	.st3{fill:#ECC32E;}
	.st4{fill:#80B4FB;}
	.st5{fill:#5490F9;}
	.st6{fill:#F6F1F1;}
</style>
<g>
	<g>
		<g>
			<path class="st0" d="M398.1,404.2h0.2c16.8,0,30.5-13.7,30.5-30.5c0-16.8-13.6-30.5-30.5-30.5c-0.2,0-0.4,0-0.7,0h-279
				c-0.2,0-0.4,0-0.7,0c-16.8,0-30.5,13.7-30.5,30.5c0,16.8,13.6,30.5,30.5,30.5h0.2"/>
			<path class="st1" d="M391.1,263.7c-88.6-8.6-177.3-8.6-265.9,0c-6.9,55.1-8.9,110.2-6.1,165.4c2.1,40.1,34.2,72.1,74.3,74
				c43.2,2,86.3,2,129.5,0c40.1-1.9,72.2-33.8,74.3-74C400,373.9,398,318.8,391.1,263.7z"/>
			<path class="st0" d="M125.2,263.7c44.3-4.3,88.6-6.4,133-6.4c-22.4,0-44.9,2.2-67.3,6.5c-3.5,55.6-4.5,111.3-3.1,166.9
				c0.9,36.6,14.3,66.5,31.9,73.3c-8.7-0.2-17.5-0.6-26.2-1c-40.1-1.9-72.2-33.8-74.3-74C116.3,373.9,118.3,318.8,125.2,263.7
				L125.2,263.7z"/>
			<path class="st2" d="M332,309.5c-51,19.7-123.3,11-159.8-25.5c0,0-8.7,59.2-53.5,59.2l-19.6,6.6
				c-52.3-205.2,59.2-150.3,59.2-150.3c10.5-20.4,25.9-28.8,41.9-30.9c1.4-0.2,2.8-0.3,4.2-0.4c0.1,0,0.2,0,0.3,0
				c11.3-0.6,22.7,1.7,32.9,5c3.5,1.1,6.9,2.4,10.1,3.7c12.8,5.2,22,11.1,24,12.3c0.3,0.2,0.4,0.3,0.4,0.3
				c11.5-15.2,22.4-28.9,34.4-28.9c4.9,0,8.3,1.9,10.6,4.9c8.7,11.4,1.5,38.7,1,40.9l0,0.1c0,0,0-0.1,0-0.1l0.1-0.2
				c1.5-3.9,18.8-45.6,49.7-45.6c2,0,3.7,0.2,5.3,0.5c23,5.1,5,45.4,3,49.7l-0.1,0.1c-0.1,0.1-0.1,0.2-0.1,0.2
				c1-1.3,39.6-50.2,56.7-27.8c0,0,0,0,0,0C450,206.1,382.9,289.8,332,309.5z"/>
			<g>
				<path class="st3" d="M432.7,183.3L432.7,183.3c-8.7-8.7-38.7,32.2-56.8,27.8l0.1-0.2c-0.1,0.1-0.1,0.2-0.1,0.2
					C377,209.8,415.6,160.8,432.7,183.3z"/>
				<path class="st3" d="M373.1,161.1c-13-3-25.1,21.8-31.9,39.4c-3.3,8.5-13.5,11.9-21.3,7.1l-1.9-1.2l0,0l0-0.1h0l0.1-0.2
					c1.5-3.9,18.8-45.6,49.7-45.6C369.8,160.5,371.6,160.7,373.1,161.1z"/>
				<path class="st3" d="M200.1,168.6c-37.3,6.6-51.4,92-28,115.4c0,0-8.7,59.2-53.5,59.2l-19.6,6.6
					c-52.3-205.2,59.2-150.3,59.2-150.3C168.8,179.1,184.1,170.7,200.1,168.6L200.1,168.6z"/>
				<path class="st3" d="M317.1,165.4c-13.1-13.1-21.8,54.1-51.3,64.8c-29.5,10.8-32.3-3-32.3-3v0c14.5-5.4,26.8-22.3,38.5-37.8
					c0,0,0,0,0,0c0.4-0.5,0.7-0.9,1.1-1.4c0.4-0.6,0.9-1.2,1.4-1.8c10.6-13.9,20.8-25.7,32-25.7
					C311.4,160.5,314.8,162.4,317.1,165.4L317.1,165.4z"/>
			</g>
		</g>
		<circle class="st4" cx="445.5" cy="84.7" r="37.1"/>
		<path class="st5" d="M478.6,101.5c-1.7,3.4-4,6.6-6.8,9.4c-14.5,14.5-38,14.5-52.5,0c-14.5-14.5-14.5-38,0-52.5
			c2.8-2.8,6-5.1,9.4-6.8c-7.1,13.9-4.8,31.4,6.8,43.1C447.1,106.4,464.6,108.7,478.6,101.5z"/>
		<g>
			<circle class="st6" cx="55" cy="157.3" r="42.6"/>
		</g>
	</g>
	<g>
		<path d="M258.1,439.9c15,0,28.9-8.8,35.3-22.3c1.8-3.7,0.2-8.2-3.6-10c-3.7-1.8-8.2-0.2-10,3.6c-4,8.4-12.5,13.7-21.7,13.7
			c-9.2,0-17.8-5.4-21.7-13.7c-1.8-3.7-6.3-5.3-10-3.6c-3.7,1.8-5.3,6.2-3.6,10C229.3,431.1,243.1,439.9,258.1,439.9z"/>
		<path d="M205.9,363c0-10.4-5.7-18.8-12.6-18.8c-7,0-12.6,8.5-12.6,18.8s5.7,18.8,12.6,18.8C200.2,381.9,205.9,373.4,205.9,363z"/>
		<path d="M335.7,363c0-10.4-5.7-18.8-12.6-18.8s-12.6,8.5-12.6,18.8s5.7,18.8,12.6,18.8S335.7,373.4,335.7,363z"/>
		<path d="M421.4,169.9c-8.5-0.1-18.4,4.6-29.5,13.9c0.9-8.6-0.2-15.6-3.5-20.8c-2.9-4.6-8.8-10-20.5-10c-17,0-30.2,10.2-39.5,21.4
			c-0.8-5.6-2.6-10.1-5.2-13.6c-3.9-5.2-9.7-7.9-16.6-7.9c-13.9,0-25.1,12.1-36.3,26.5c-4.6-2.6-11.5-6.3-19.7-9.6
			c-3.5-1.4-7.1-2.7-10.6-3.9c-12.7-4.1-24.7-5.9-35.5-5.3c0,0-0.1,0-0.2,0c-0.1,0-0.2,0-0.2,0c-1.6,0.1-3.1,0.2-4.7,0.4
			c-18.9,2.4-33.7,12.1-44.2,28.9c-11.7-4.2-36.7-10.2-55.6,5.2c-25.6,20.8-28.5,71.9-8.7,152c-6.6,6.8-10.7,16.2-10.7,26.4
			c0,18.5,13.3,34,30.9,37.3c0.2,6.1,0.4,12.3,0.8,18.4c0.6,12.3,3.8,24,9.4,34.8c1.3,2.6,4,4.1,6.7,4.1c1.2,0,2.3-0.3,3.4-0.8
			c3.7-1.9,5.1-6.4,3.2-10.1c-4.6-8.9-7.2-18.6-7.7-28.7c-1.3-25.9-1.6-52.2-0.7-78.4c18-2.4,32.8-13.7,43-33.2
			c3.6-6.9,6.1-13.7,7.7-19.3c17.9,13.8,41.9,23.4,68.9,27.4c31,4.6,62.7,1.5,89.1-8.7c16.8-6.5,34.7-19.1,51-34.1
			c5.1,48.6,6.5,97.7,4,146.2c-1.9,36.4-30.7,65.1-67.2,66.8c-42.7,2-86.1,2-128.8,0c-15.9-0.7-30.6-6.6-42.6-16.9
			c-3.1-2.7-7.9-2.3-10.6,0.8c-2.7,3.1-2.3,7.9,0.8,10.6c14.6,12.5,32.4,19.6,51.7,20.5c21.6,1,43.4,1.5,65.1,1.5
			c21.8,0,43.5-0.5,65.1-1.5c44.2-2.1,79.2-36.9,81.4-81.1c0.3-6.1,0.6-12.2,0.8-18.4c17.5-3.3,30.9-18.8,30.9-37.3
			c0-18.7-13.6-34.3-31.4-37.4c-1.1-22.5-2.9-45-5.6-67.3c20.6-21.9,36.8-46.3,41.9-64.3c3.1-11,2.3-19.7-2.5-26
			C434.3,173,428.3,169.9,421.4,169.9L421.4,169.9z M95,373.7c0-10.2,6.6-18.8,15.8-21.8c-0.4,14.5-0.6,29-0.3,43.6
			C101.5,392.3,95,383.8,95,373.7L95,373.7z M421.3,373.7c0,10-6.5,18.6-15.5,21.7c0.2-14.5,0.1-29-0.3-43.6
			C414.6,354.9,421.3,363.6,421.3,373.7z M426.7,200.6c-8.7,30.8-58.5,86.8-97.5,101.9c-23.7,9.2-53.4,12-81.5,7.9
			c-29.2-4.3-54.1-15.5-70.3-31.7c-2-2-5-2.7-7.7-1.8c-2.7,0.9-4.7,3.2-5.1,6c0,0.1-2.2,14-9.3,27.5c-8.9,16.7-21.2,25.2-36.7,25.3
			c0,0-0.6,0-0.8,0c-4.9,0-9.7,1-14,2.7c-21-87.9-9.2-120.1,4.8-131.5c17.6-14.4,45.9-0.9,46.2-0.7c3.7,1.8,8.1,0.3,10-3.3
			c8.3-16,20.1-24.8,36.1-26.9c1.2-0.1,2.4-0.3,3.6-0.3c0.2,0,0.3,0,0.5,0c9-0.5,19.1,1.1,30.1,4.6c3.2,1,6.4,2.2,9.6,3.5
			c6.5,2.7,12.1,5.5,16.2,7.8c-9.6,12.6-19.5,24.8-30.1,28.7c-3.9,1.4-5.9,5.7-4.4,9.6c1.4,3.9,5.7,5.9,9.6,4.4
			c15.9-5.9,28.2-22.2,40.1-38.1c10.5-13.9,21.3-28.3,30.2-28.3c2.8,0,3.9,1,4.7,2c4.6,6.1,2.6,23.8-0.3,34.5
			c-1.1,3.9,1.1,7.9,4.9,9.1c3.8,1.3,7.9-0.7,9.4-4.5c0.2-0.4,16-41.1,42.8-41.1c5.9,0,7.3,2.2,7.8,3c4.4,7-1.1,25.7-6.5,36.8
			c-1.7,3.5-0.5,7.6,2.8,9.6c3.3,2,7.5,1.3,9.9-1.8c7.8-10.1,27.7-30.8,39.4-30.8h0c1.6,0,3.5,0.4,5.4,2.9
			C428.4,190,428.4,194.7,426.7,200.6L426.7,200.6z"/>
		<path d="M66.3,63.1h19.7l14.1,52.5c0.9,3.2,3.8,5.5,7.1,5.5c0.1,0,0.1,0,0.2,0c3.3,0,6.2-2.1,7.2-5.3L146,15h44.8
			c4.1,0,7.5-3.4,7.5-7.5S195,0,190.9,0h-50.3c-3.3,0-6.2,2.1-7.2,5.3l-25.5,81.6l-8.9-33.2c-0.9-3.3-3.9-5.6-7.2-5.6H66.3
			c-4.1,0-7.5,3.4-7.5,7.5S62.1,63.1,66.3,63.1z"/>
		<path d="M174.4,83.7c-12.6,18-20.1,27.8-24.1,33.1c-4.9,6.4-6.8,8.9-5.5,13.1c0.8,2.5,2.6,4.4,5.1,5.2c1,0.3,2.1,0.7,17.3,0.7
			c6,0,14.3-0.1,25.6-0.2c4.1-0.1,7.5-3.5,7.4-7.6c-0.1-4.1-3.4-7.4-7.5-7.4c0,0-0.1,0-0.1,0c-9.2,0.1-19,0.2-26.5,0.2
			c4.5-5.9,11.1-14.9,20.6-28.5c5-7.1,8.2-13.7,9.6-19.8c0.1-0.2,0.1-0.5,0.1-0.7l0.4-3.1c0-0.3,0.1-0.6,0.1-1
			c0-15.3-12.5-27.8-27.8-27.8c-13.2,0-24.7,9.4-27.3,22.4c-0.8,4.1,1.8,8,5.9,8.8c4.1,0.8,8-1.8,8.8-5.9c1.2-6,6.4-10.3,12.5-10.3
			c6.9,0,12.6,5.5,12.8,12.4l-0.3,2.1C180.6,73.6,178.2,78.4,174.4,83.7z"/>
		<path d="M487.5,69.7c22.2-28.2,19.7-37.3,15-42c-4.7-4.7-13.8-7.2-42.1,15c-5.7-2-11.7-2.9-17.9-2.5c-4.1,0.3-7.3,3.8-7,8
			c0.3,4.1,3.9,7.3,8,7c8.5-0.6,16.8,2.6,22.9,8.6c1.3,1.3,2.4,2.6,3.3,4c-5.9,7-12.7,14.3-19.8,21.5c-7.1,7.1-14.5,13.9-21.5,19.8
			c-1.4-1-2.7-2.1-4-3.3c-10.9-10.9-11.7-28-1.9-39.9c2.7-3.2,2.2-7.9-1-10.6c-3.2-2.7-7.9-2.2-10.6,1c-10.5,12.6-13,29.1-7.7,43.6
			c-22.1,28.2-19.7,37.3-15,42c1.7,1.7,4.1,3.2,7.8,3.2c6.3,0,16.5-4.2,34.3-18.2c4.8,1.7,9.9,2.6,15,2.6c11.4,0,22.9-4.4,31.6-13.1
			C489.6,103.7,493.1,85.4,487.5,69.7L487.5,69.7z M488.2,42c-1.7,3.3-4.5,7.8-8.8,13.7c-0.7-0.9-1.5-1.7-2.3-2.5
			c-0.8-0.8-1.7-1.6-2.5-2.3C480.5,46.5,485,43.7,488.2,42z M402.8,127.4c1.7-3.3,4.5-7.8,8.8-13.7c0.7,0.9,1.5,1.7,2.3,2.5
			c0.8,0.8,1.7,1.6,2.5,2.3C410.5,122.9,406,125.7,402.8,127.4z M466.4,105.6c-5.8,5.8-13.5,8.7-21.2,8.7
			c5.1-4.6,10.3-9.4,15.3-14.5c5.1-5.1,10-10.2,14.5-15.3C475.2,92.1,472.3,99.8,466.4,105.6z"/>
		<path d="M228.5,105c3.9,1.5,8.2-0.5,9.7-4.3l5.9-15.5h39.7l5.9,15.5c1.1,3,4,4.9,7,4.9c0.9,0,1.8-0.2,2.6-0.5
			c3.9-1.5,5.8-5.8,4.4-9.7l-30.9-81.8c0-0.1-0.1-0.1-0.1-0.2c-1.5-3.5-4.9-5.8-8.7-5.8c0,0,0,0,0,0c-3.8,0-7.2,2.3-8.7,5.8
			c0,0.1,0,0.1-0.1,0.2l-31.1,81.8C222.7,99.2,224.6,103.6,228.5,105L228.5,105z M264,32.8l14.1,37.3h-28.3L264,32.8z"/>
		<path d="M17.1,42.8c1.5,1.5,3.4,2.2,5.3,2.2s3.8-0.7,5.3-2.2l3.6-3.6l3.6,3.6c1.5,1.5,3.4,2.2,5.3,2.2c1.9,0,3.8-0.7,5.3-2.2
			c2.9-2.9,2.9-7.7,0-10.6l-3.6-3.6l3.6-3.6c2.9-2.9,2.9-7.7,0-10.6c-2.9-2.9-7.7-2.9-10.6,0L31.3,18l-3.6-3.6
			c-2.9-2.9-7.7-2.9-10.6,0s-2.9,7.7,0,10.6l3.6,3.6l-3.6,3.6C14.2,35.1,14.2,39.9,17.1,42.8z"/>
		<path d="M502.8,146.3c-2.9-2.9-7.7-2.9-10.6,0l-3.6,3.6l-3.6-3.6c-2.9-2.9-7.7-2.9-10.6,0c-2.9,2.9-2.9,7.7,0,10.6l3.6,3.6
			l-3.6,3.6c-2.9,2.9-2.9,7.7,0,10.6c1.5,1.5,3.4,2.2,5.3,2.2c1.9,0,3.8-0.7,5.3-2.2l3.6-3.6l3.6,3.6c1.5,1.5,3.4,2.2,5.3,2.2
			c1.9,0,3.8-0.7,5.3-2.2c2.9-2.9,2.9-7.7,0-10.6l-3.6-3.6l3.6-3.6C505.7,154,505.7,149.2,502.8,146.3z"/>
		<path d="M321.5,136c1.5,1.5,3.4,2.2,5.3,2.2c1.9,0,3.8-0.7,5.3-2.2l3.6-3.6l3.6,3.6c1.5,1.5,3.4,2.2,5.3,2.2
			c1.9,0,3.8-0.7,5.3-2.2c2.9-2.9,2.9-7.7,0-10.6l-3.6-3.6l3.6-3.6c2.9-2.9,2.9-7.7,0-10.6c-2.9-2.9-7.7-2.9-10.6,0l-3.6,3.6
			l-3.6-3.6c-2.9-2.9-7.7-2.9-10.6,0c-2.9,2.9-2.9,7.7,0,10.6l3.6,3.6l-3.6,3.6C318.6,128.4,318.6,133.1,321.5,136L321.5,136z"/>
		<path d="M64.9,307.7H50.4v-14.5c0-4.1-3.4-7.5-7.5-7.5s-7.5,3.4-7.5,7.5v14.5H21c-4.1,0-7.5,3.4-7.5,7.5c0,4.1,3.4,7.5,7.5,7.5
			h14.5v14.5c0,4.1,3.4,7.5,7.5,7.5s7.5-3.4,7.5-7.5v-14.5h14.5c4.1,0,7.5-3.4,7.5-7.5C72.4,311.1,69,307.7,64.9,307.7L64.9,307.7z"
			/>
		<path d="M55,207.5c27.6,0,50.1-22.5,50.1-50.1S82.7,107.2,55,107.2c-27.6,0-50.1,22.5-50.1,50.1S27.4,207.5,55,207.5z M55,122.2
			c19.4,0,35.1,15.8,35.1,35.1S74.4,192.5,55,192.5s-35.1-15.8-35.1-35.1S35.6,122.2,55,122.2z"/>
		<path d="M55,164.9h11.2c4.1,0,7.5-3.4,7.5-7.5s-3.4-7.5-7.5-7.5h-3.7v-14c0-4.1-3.4-7.5-7.5-7.5s-7.5,3.4-7.5,7.5v21.5
			C47.5,161.5,50.9,164.9,55,164.9z"/>
		<path d="M353.1,51.1h15.6l-12.2,25.4c-1.8,3.7-0.2,8.2,3.5,10c1,0.5,2.2,0.7,3.2,0.7c2.8,0,5.5-1.6,6.8-4.3l17.4-36.1
			c1.1-2.3,1-5.1-0.4-7.2c-1.4-2.2-3.8-3.5-6.3-3.5H365l12.2-25.4c1.8-3.7,0.2-8.2-3.5-10c-3.7-1.8-8.2-0.2-10,3.5l-17.4,36.1
			c-1.1,2.3-1,5.1,0.4,7.2C348.1,49.8,350.5,51.1,353.1,51.1z"/>
		<path d="M495.6,251c3-4.1,4.8-9.1,4.8-14.6c0-13.5-11-24.5-24.5-24.5h-21.4c-4.1,0-7.5,3.4-7.5,7.5v34v0.1v39.8
			c0,2,0.8,3.9,2.2,5.3c1.4,1.4,3.3,2.2,5.3,2.2h0c0,0,19.7-0.1,25.1-0.1c15.1,0,27.4-12.3,27.4-27.4
			C507.1,264.1,502.6,256,495.6,251L495.6,251z M476,227c5.2,0,9.5,4.3,9.5,9.5s-4.3,9.5-9.5,9.5c-1.6,0-4.6,0-7.8,0h-6.1v-19H476z
			 M479.8,285.7c-3.2,0-11.5,0-17.7,0.1V261c2,0,4.1,0,6.2,0h11.5c6.8,0,12.4,5.5,12.4,12.4C492.1,280.1,486.6,285.7,479.8,285.7
			L479.8,285.7z"/>
	</g>
</g>
</svg>
